<svg xmlns="http://www.w3.org/2000/svg" viewBox="0 0 182 156">
  <linearGradient id="stamp_svg-default-background" gradientUnits="userSpaceOnUse" x1="243.323" y1="549.076" x2="243.322" y2="548.076" gradientTransform="matrix(172.9482 0 0 -147.4524 -41606.64 81079.602)">
    <stop offset="0" stop-color="#035E8A"/>
    <stop offset=".41" stop-color="#025278"/>
    <stop offset="1" stop-color="#002441"/>
  </linearGradient>
  <path class="stamp_svg-background" fill="url(#stamp_svg-default-background)" d="M562 264.5c-.9-9.5-5.8-26.5-22.3-26.5h-30.1c-7.2-.1-13.9 0-18.5-4.8-2.9-3.1-4.6-7.9-5.4-15.5-.4-3.4-.5-7.4-.5-12.1 0-17.1 6.4-30.3 11.1-39.9 2.6-5.4 4.9-10 4.9-13.2v-14.7c0-13.7-8.6-20.6-25.7-20.6-17 0-25.7 6.9-25.7 20.6v14.7c0 3.1 2.3 7.8 4.9 13.2 4.7 9.6 11.1 22.8 11.1 39.9 0 29.5-7.1 32.4-24.4 32.4h-30.1c-16.5 0-21.5 17.1-22.3 26.5h173z" transform="translate(-384 -112)"/>
  <path class="stamp_svg-highlight" d="M89.4 6c-.7 0-1.5 0-2.5.1-1 0-2 .2-3.2.3l-1.8.3c-.6.1-1.2.3-1.9.5-1.3.4-2.7.8-4 1.5-.6.4-1.3.7-2 1.2-.3.2-.6.4-1 .7-.3.2-.6.5-.9.8-1.2 1-2.2 2.3-3 3.7-.4.7-.7 1.4-1 2.2-.2.8-.6 1.5-.7 2.3-.4 1.5-.6 3.1-.7 4.5-.1 1.5 0 2.9 0 4.2 0 1.3.1 2.6.1 3.8 0 2.3.1 4.3.2 5.6.1 1.4.1 2.1.1 2.1s0-.8.1-2.1c0-1.4.1-3.3.2-5.6s.1-5.1.2-8c.1-1.4.3-2.9.7-4.3.2-.7.5-1.4.7-2.1.3-.7.6-1.4 1-2 .8-1.3 1.7-2.5 2.8-3.5.3-.2.5-.5.8-.7l.9-.6c.6-.5 1.2-.8 1.9-1.1 1.3-.7 2.5-1.2 3.8-1.6.6-.2 1.2-.4 1.8-.5.6-.1 1.2-.3 1.8-.4 1.2-.5 2.2-.8 3.2-.8.9-.1 1.8-.2 2.4-.2 1.4-.1 2.1-.2 2.1-.2s-.7-.1-2.1-.1zm-6.7 90.8v1.3c0 .8-.1 2.1-.1 3.6-.1 1.5-.2 3.4-.4 5.6-.2 2.1-.6 4.6-1.3 7.1-.7 2.5-1.7 5.3-3.7 7.5-1 1.1-2.2 2.1-3.6 2.8-1.4.7-2.9 1.2-4.5 1.5-3.2.7-6.7.8-10.1.8H28.7c-.5 0-.9 0-1.3.1-1.6 0-3.3.4-4.9.8-.8.3-1.5.5-2.3.8-.7.4-1.4.7-2.1 1.1-2.7 1.6-4.7 3.8-6.3 6-1.5 2.2-2.6 4.5-3.3 6.5-.7 2-1.2 3.9-1.5 5.4-.2.8-.3 1.4-.4 2-.1.6-.2 1.1-.2 1.5-.1.8-.1 1.3-.1 1.3s.1-.4.2-1.3c.1-.8.3-2 .7-3.5.3-1.5.9-3.3 1.7-5.3.8-2 1.9-4.2 3.4-6.3 1.5-2.1 3.6-4.2 6.2-5.7.7-.3 1.3-.7 2-1 .7-.3 1.5-.5 2.2-.7.8-.2 1.5-.3 2.3-.5.2 0 .4-.1.6-.1h.6c.4 0 .8 0 1.2-.1.4 0 .9-.1 1.2-.1h30.3c3.5 0 7-.1 10.3-.8 1.7-.4 3.3-.9 4.7-1.7 1.5-.8 2.7-1.8 3.7-3 2-2.4 3-5.3 3.6-7.9.6-2.6.9-5.1 1.1-7.2.2-2.2.2-4.1.3-5.6v-3.6c.1-.9.1-1.3.1-1.3z"/>
</svg>
